<?xml version="1.0" encoding="utf-8"?>
<!-- Generator: Adobe Illustrator 24.0.0, SVG Export Plug-In . SVG Version: 6.00 Build 0)  -->
<svg version="1.1" id="icon" xmlns="http://www.w3.org/2000/svg" xmlns:xlink="http://www.w3.org/1999/xlink" x="0px" y="0px"
	 viewBox="0 0 16 16" style="enable-background:new 0 0 16 16;" xml:space="preserve">
<style type="text/css">
	.st0{fill:#CBA350;}
	.st1{clip-path:url(#SVGID_2_);}
</style>
<g id="Group_1739">
	<path id="Mask-2" class="st0" d="M13.8,14.5H2.2c-1.2,0-2.2-1-2.2-2.2l0-8.7c0-1.2,1-2.2,2.2-2.2h11.6c1.2,0,2.2,1,2.2,2.2v8.7
		C16,13.6,15,14.5,13.8,14.5z M3.6,4.5c-0.4,0-0.7,0.3-0.7,0.7c0,0.3,0.1,0.5,0.4,0.6L8,8.7l0,0l4.9-3c0.3-0.2,0.5-0.7,0.2-1
		c-0.2-0.3-0.7-0.5-1-0.2l0,0L8,7L4,4.6C3.9,4.5,3.8,4.5,3.6,4.5z"/>
	<g>
		<defs>
			<path id="SVGID_1_" d="M13.8,14.5H2.2c-1.2,0-2.2-1-2.2-2.2l0-8.7c0-1.2,1-2.2,2.2-2.2h11.6c1.2,0,2.2,1,2.2,2.2v8.7
				C16,13.6,15,14.5,13.8,14.5z M3.6,4.5c-0.4,0-0.7,0.3-0.7,0.7c0,0.3,0.1,0.5,0.4,0.6L8,8.7l0,0l4.9-3c0.3-0.2,0.5-0.7,0.2-1
				c-0.2-0.3-0.7-0.5-1-0.2l0,0L8,7L4,4.6C3.9,4.5,3.8,4.5,3.6,4.5z"/>
		</defs>
		<clipPath id="SVGID_2_">
			<use xlink:href="#SVGID_1_"  style="overflow:visible;"/>
		</clipPath>
		<g id="Group_1738" class="st1">
			<g id="_" transform="translate(-0.889 -2.667)">
				<rect id="Atoms_Colors_Black" x="0.2" y="1.9" class="st0" width="17.5" height="17.5"/>
			</g>
		</g>
	</g>
</g>
</svg>
