<?xml version="1.0" encoding="utf-8"?>
<!-- Generator: Adobe Illustrator 24.0.0, SVG Export Plug-In . SVG Version: 6.00 Build 0)  -->
<svg version="1.1" id="icon" xmlns="http://www.w3.org/2000/svg" xmlns:xlink="http://www.w3.org/1999/xlink" x="0px" y="0px"
	 viewBox="0 0 16 16" style="enable-background:new 0 0 16 16;" xml:space="preserve">
<style type="text/css">
	.st0{fill:#CBA350;}
	.st1{clip-path:url(#SVGID_2_);}
</style>
<g id="Group_1735">
	<path id="Mask-2" class="st0" d="M8,16L8,16c-1-1.1-1.9-2.4-2.8-3.6c-1.3-1.9-2.8-4.6-2.8-6.8C2.4,2.5,4.9,0,8,0
		c1.5,0,2.9,0.6,4,1.6c1.1,1,1.6,2.5,1.6,4c0,2.2-1.5,4.9-2.8,6.8C9.9,13.6,9,14.9,8,16z M8,3.6c-1.1,0-2,0.9-2,2s0.9,2,2,2
		s2-0.9,2-2C10,4.5,9.1,3.6,8,3.6z"/>
	<g>
		<defs>
			<path id="SVGID_1_" d="M8,16L8,16c-1-1.1-1.9-2.4-2.8-3.6c-1.3-1.9-2.8-4.6-2.8-6.8C2.4,2.5,4.9,0,8,0c1.5,0,2.9,0.6,4,1.6
				c1.1,1,1.6,2.5,1.6,4c0,2.2-1.5,4.9-2.8,6.8C9.9,13.6,9,14.9,8,16z M8,3.6c-1.1,0-2,0.9-2,2s0.9,2,2,2s2-0.9,2-2
				C10,4.5,9.1,3.6,8,3.6z"/>
		</defs>
		<clipPath id="SVGID_2_">
			<use xlink:href="#SVGID_1_"  style="overflow:visible;"/>
		</clipPath>
		<g id="Group_1734" class="st1">
			<g id="_" transform="translate(-4.5 -1.8)">
				<rect id="Atoms_Colors_Black" x="2.9" y="0.2" class="st0" width="19.2" height="19.2"/>
			</g>
		</g>
	</g>
</g>
</svg>
