<svg id="icon" xmlns="http://www.w3.org/2000/svg" xmlns:xlink="http://www.w3.org/1999/xlink" width="16" height="16" viewBox="0 0 16 16">
  <defs>
    <clipPath id="clip-path">
      <path id="Mask" d="M3.218,6.924a13.465,13.465,0,0,0,5.858,5.858l1.956-1.956a.884.884,0,0,1,.907-.213,10.14,10.14,0,0,0,3.173.507.892.892,0,0,1,.889.889v3.1a.892.892,0,0,1-.889.889A15.11,15.11,0,0,1,0,.889.892.892,0,0,1,.889,0H4a.892.892,0,0,1,.889.889A10.1,10.1,0,0,0,5.4,4.062a.892.892,0,0,1-.222.907L3.218,6.924Z" fill="#cba350"/>
    </clipPath>
  </defs>
  <g id="Group_1737" data-name="Group 1737">
    <path id="Mask-2" data-name="Mask" d="M3.218,6.924a13.465,13.465,0,0,0,5.858,5.858l1.956-1.956a.884.884,0,0,1,.907-.213,10.14,10.14,0,0,0,3.173.507.892.892,0,0,1,.889.889v3.1a.892.892,0,0,1-.889.889A15.11,15.11,0,0,1,0,.889.892.892,0,0,1,.889,0H4a.892.892,0,0,1,.889.889A10.1,10.1,0,0,0,5.4,4.062a.892.892,0,0,1-.222.907L3.218,6.924Z" fill="#cba350"/>
    <g id="Group_1736" data-name="Group 1736" clip-path="url(#clip-path)">
      <g id="_" data-name="↪🎨" transform="translate(-2.667 -2.671)">
        <rect id="Atoms_Colors_Black" data-name="Atoms / Colors / Black" width="21.333" height="21.333" transform="translate(0 0)" fill="#cba350"/>
      </g>
    </g>
  </g>
</svg>
